<svg xmlns="http://www.w3.org/2000/svg" width="24" height="24" viewBox="0 0 24 24" style="fill:#0c5598"><path d="M12 12.25c2.69 0 4.87-2.18 4.87-4.87s-2.18-4.87-4.87-4.87-4.87 2.18-4.87 4.87 2.18 4.87 4.87 4.87zm0-7.75c1.58 0 2.87 1.29 2.87 2.87s-1.29 2.87-2.87 2.87-2.87-1.29-2.87-2.87 1.29-2.87 2.87-2.87z"/><path d="m20 21.25-.86-4.24c-.16-.83-.75-1.52-1.53-1.81L14 14h-4l-3.61 1.2c-.78.29-1.37.98-1.53 1.81l-.86 4.24h3.75l1.04-3.11h.42l1.04 3.11h3.75l1.04-3.11h.42l1.04 3.11H20zm-5.87-5.25L13.04 19.25h-1.08l-1.04-3.11h1.04l1.21-.14zm-4.08 0 1.17-.39l1.04 3.11h-3.4l-1.04-3.11h1.04l1.19.39z"/></svg>